o Remote_cm
usemtl Mat_1
v 0 4.199999809265137 -0.3499999940395355
v 0 2.1431318265879212e-17 -0.3499999940395355
v 0 1.5308085657314598e-17 -0.25
v 0 0.027248403057456017 -0.13650238513946533
v 0 0.04774564877152443 -0.10305368900299072
v 0 0.24999992549419403 1.5308080694230923e-17
v 0 0.0030777882784605026 -0.21089139580726624
v 0 0.012235715985298157 -0.1727457493543625
v 0 4.199999809265137 -0.25
v 0 0.17274567484855652 -0.5877641439437866
v 0 0.13650232553482056 -0.5727516412734985
v 0 0.10305363684892654 -0.5522542595863342
v 0 0.10305363684892654 -0.04774574935436249
v 0 0.13650232553482056 -0.02724836766719818
v 0 0.17274567484855652 -0.012235870584845543
v 0 4.172751426696777 -0.13650238513946533
v 0 4.1877641677856445 -0.1727457493543625
v 0 3.9499998092651367 2.418677434594033e-16
v 0 4.1969218254089355 -0.3891085982322693
v 0 4.1877641677856445 -0.42725422978401184
v 0 3.9499998092651367 -0.6000000238418579
v 0 0.07322314381599426 -0.5267767310142517
v 0 0.04774564877152443 -0.4969463348388672
v 0 0.24999992549419403 -0.6000000238418579
v 0 0.027248403057456017 -0.4634976089000702
v 0 0.012235715985298157 -0.42725422978401184
v 0 0.07322314381599426 -0.0732233002781868
v 0 0.21089136600494385 -0.0030779149383306503
v 0 4.027254104614258 -0.012235870584845543
v 0 4.063497543334961 -0.02724836766719818
v 0 4.152254104614258 -0.10305368900299072
v 0 4.0969462394714355 -0.04774574935436249
v 0 4.126776695251465 -0.0732233002781868
v 0 4.1969218254089355 -0.21089139580726624
v 0 0.0030777882784605026 -0.3891085982322693
v 0 4.172751426696777 -0.4634976089000702
v 0 4.152254104614258 -0.4969463348388672
v 0 3.9891085624694824 -0.5969220399856567
v 0 4.126776695251465 -0.5267767310142517
v 0 4.0969462394714355 -0.5522542595863342
v 0 0.21089136600494385 -0.5969220399856567
v 0 3.9891085624694824 -0.0030779149383306503
v 0 4.063497543334961 -0.5727516412734985
v 0 4.027254104614258 -0.5877641439437866
v 10.09999942779541 4.199999809265137 -0.25
v 10.09999942779541 4.199999809265137 -0.3499999940395355
v 10.09999942779541 2.1431318265879212e-17 -0.3499999940395355
v 10.09999942779541 4.1969218254089355 -0.21089139580726624
v 10.09999942779541 4.1877641677856445 -0.1727457493543625
v 10.09999942779541 1.5308085657314598e-17 -0.25
v 10.09999942779541 4.172751426696777 -0.13650238513946533
v 10.09999942779541 4.152254104614258 -0.10305368900299072
v 10.09999942779541 3.9499998092651367 2.418677434594033e-16
v 10.09999942779541 0.17274567484855652 -0.012235870584845543
v 10.09999942779541 0.13650232553482056 -0.02724836766719818
v 10.09999942779541 0.10305363684892654 -0.04774574935436249
v 10.09999942779541 0.07322314381599426 -0.0732233002781868
v 10.09999942779541 0.04774564877152443 -0.10305368900299072
v 10.09999942779541 0.24999992549419403 1.5308080694230923e-17
v 10.09999942779541 0.027248403057456017 -0.13650238513946533
v 10.09999942779541 0.012235715985298157 -0.1727457493543625
v 10.09999942779541 0.0030777882784605026 -0.21089139580726624
v 10.09999942779541 0.0030777882784605026 -0.3891085982322693
v 10.09999942779541 0.012235715985298157 -0.42725422978401184
v 10.09999942779541 0.24999992549419403 -0.6000000238418579
v 10.09999942779541 0.027248403057456017 -0.4634976089000702
v 10.09999942779541 0.04774564877152443 -0.4969463348388672
v 10.09999942779541 0.10305363684892654 -0.5522542595863342
v 10.09999942779541 0.13650232553482056 -0.5727516412734985
v 10.09999942779541 0.17274567484855652 -0.5877641439437866
v 10.09999942779541 4.063497543334961 -0.02724836766719818
v 10.09999942779541 4.0969462394714355 -0.04774574935436249
v 10.09999942779541 4.126776695251465 -0.0732233002781868
v 10.09999942779541 0.21089136600494385 -0.0030779149383306503
v 10.09999942779541 0.07322314381599426 -0.5267767310142517
v 10.09999942779541 0.21089136600494385 -0.5969220399856567
v 10.09999942779541 4.027254104614258 -0.5877641439437866
v 10.09999942779541 4.063497543334961 -0.5727516412734985
v 10.09999942779541 4.0969462394714355 -0.5522542595863342
v 10.09999942779541 4.1877641677856445 -0.42725422978401184
v 10.09999942779541 3.9499998092651367 -0.6000000238418579
v 10.09999942779541 4.172751426696777 -0.4634976089000702
v 10.09999942779541 4.152254104614258 -0.4969463348388672
v 10.09999942779541 4.1969218254089355 -0.3891085982322693
v 10.09999942779541 4.027254104614258 -0.012235870584845543
v 10.09999942779541 3.9891085624694824 -0.0030779149383306503
v 10.09999942779541 3.9891085624694824 -0.5969220399856567
v 10.09999942779541 4.126776695251465 -0.5267767310142517
vn -1 0 0
vn 0 1 6.123234262925839e-17
vn 0 0.9969175869033632 -0.07845587882864583
vn 0 0.9969175869033632 -0.07845587882864583
vn -1 0 0
vn 0 -1 -6.123234262925839e-17
vn 0 -1 -6.123234262925839e-17
vn 0 -0.9969175869033632 -0.07845587882864583
vn -1 0 0
vn 0 -1 -6.123234262925839e-17
vn 0 -0.9969175869033632 0.07845587882864583
vn 0 -0.9969175869033632 0.07845587882864583
vn -1 0 0
vn 0 -0.8526417495827724 0.522495977849044
vn 0 -0.8526417495827724 0.522495977849044
vn 0 -0.9238778320815016 0.3826875375399422
vn -1 0 0
vn 0 -0.7604067361432494 0.6494471461389069
vn 0 -0.7604067361432494 0.6494471461389069
vn 0 -0.8526417495827724 0.522495977849044
vn -1 0 0
vn 0 -6.123234262925839e-17 1
vn 0 -6.123234262925839e-17 1
vn 0 -0.07845920464292475 0.9969173251613193
vn -1 0 0
vn 0 -0.972370085721385 0.2334446752320273
vn 0 -0.972370085721385 0.2334446752320273
vn 0 -0.9969175869033632 0.07845587882864583
vn -1 0 0
vn 0 -0.9238778320815016 0.3826875375399422
vn 0 -0.9238778320815016 0.3826875375399422
vn 0 -0.972370085721385 0.2334446752320273
vn -1 0 0
vn 0 1 6.123234262925839e-17
vn 0 1 6.123234262925839e-17
vn 0 0.9969175869033632 0.07845587882864583
vn -1 0 0
vn 0 -0.2334443376527429 -0.9723701667666858
vn 0 -0.3826839836011218 -0.9238793041816535
vn 0 -0.3826839836011218 -0.9238793041816535
vn -1 0 0
vn 0 -0.3826839836011218 -0.9238793041816535
vn 0 -0.5224982617760594 -0.8526403499958211
vn 0 -0.5224982617760594 -0.8526403499958211
vn -1 0 0
vn 0 -0.5224982617760594 -0.8526403499958211
vn 0 -0.6494466004750592 -0.7604072021827442
vn 0 -0.6494466004750592 -0.7604072021827442
vn -1 0 0
vn 0 -0.5224986014320511 0.8526401418544346
vn 0 -0.5224986014320511 0.8526401418544346
vn 0 -0.6494466004750592 0.7604072021827442
vn -1 0 0
vn 0 -0.38268366163773404 0.9238794375434147
vn 0 -0.38268366163773404 0.9238794375434147
vn 0 -0.5224986014320511 0.8526401418544346
vn -1 0 0
vn 0 -0.23344499872216995 0.9723700080584581
vn 0 -0.23344499872216995 0.9723700080584581
vn 0 -0.38268366163773404 0.9238794375434147
vn -1 0 0
vn 0 0.8526417495827724 0.522495977849044
vn 0 0.9238778320815016 0.3826875375399422
vn 0 0.9238778320815016 0.3826875375399422
vn -1 0 0
vn 0 0.9238778320815016 0.3826875375399422
vn 0 0.972370085721385 0.2334446752320273
vn 0 0.972370085721385 0.2334446752320273
vn -1 0 0
vn 0 -6.123234262925839e-17 1
vn 0 0.07845920464292475 0.9969173251613193
vn 0 0.07845920464292475 0.9969173251613193
vn -1 0 0
vn 0 0.972370085721385 -0.2334446752320273
vn 0 0.972370085721385 -0.2334446752320273
vn 0 0.9969175869033632 -0.07845587882864583
vn -1 0 0
vn 0 0.9238778320815016 -0.3826875375399422
vn 0 0.9238778320815016 -0.3826875375399422
vn 0 0.972370085721385 -0.2334446752320273
vn -1 0 0
vn 0 6.123234262925839e-17 -1
vn 0 6.123234262925839e-17 -1
vn 0 0.07846041627366393 -0.9969172298030381
vn -1 0 0
vn 0 -0.6494466004750592 -0.7604072021827442
vn 0 -0.7604066815677086 -0.6494472100388032
vn 0 -0.7604066815677086 -0.6494472100388032
vn -1 0 0
vn 0 -0.7604066815677086 -0.6494472100388032
vn 0 -0.85264188834305 -0.5224957514112413
vn 0 -0.85264188834305 -0.5224957514112413
vn -1 0 0
vn 0 6.123234262925839e-17 -1
vn 0 -0.07846041627366393 -0.9969172298030381
vn 0 -0.07846041627366393 -0.9969172298030381
vn -1 0 0
vn 0 -0.85264188834305 -0.5224957514112413
vn 0 -0.9238778320815016 -0.3826875375399422
vn 0 -0.9238778320815016 -0.3826875375399422
vn -1 0 0
vn 0 -0.9238778320815016 -0.3826875375399422
vn 0 -0.972370085721385 -0.2334446752320273
vn 0 -0.972370085721385 -0.2334446752320273
vn -1 0 0
vn 0 -0.6494466004750592 0.7604072021827442
vn 0 -0.6494466004750592 0.7604072021827442
vn 0 -0.7604067361432494 0.6494471461389069
vn -1 0 0
vn 0 -0.07845920464292475 0.9969173251613193
vn 0 -0.07845920464292475 0.9969173251613193
vn 0 -0.23344499872216995 0.9723700080584581
vn -1 0 0
vn 0 0.23344499872216995 0.9723700080584581
vn 0 0.38268366163773404 0.9238794375434147
vn 0 0.38268366163773404 0.9238794375434147
vn -1 0 0
vn 0 0.38268366163773404 0.9238794375434147
vn 0 0.5224986014320511 0.8526401418544346
vn 0 0.5224986014320511 0.8526401418544346
vn -1 0 0
vn 0 0.7604067361432494 0.6494471461389069
vn 0 0.8526417495827724 0.522495977849044
vn 0 0.8526417495827724 0.522495977849044
vn -1 0 0
vn 0 0.5224986014320511 0.8526401418544346
vn 0 0.6494466004750592 0.7604072021827442
vn 0 0.6494466004750592 0.7604072021827442
vn -1 0 0
vn 0 0.6494466004750592 0.7604072021827442
vn 0 0.7604067361432494 0.6494471461389069
vn 0 0.7604067361432494 0.6494471461389069
vn -1 0 0
vn 0 0.972370085721385 0.2334446752320273
vn 0 0.9969175869033632 0.07845587882864583
vn 0 0.9969175869033632 0.07845587882864583
vn -1 0 0
vn 0 -0.972370085721385 -0.2334446752320273
vn 0 -0.9969175869033632 -0.07845587882864583
vn 0 -0.9969175869033632 -0.07845587882864583
vn -1 0 0
vn 0 0.85264188834305 -0.5224957514112413
vn 0 0.85264188834305 -0.5224957514112413
vn 0 0.9238778320815016 -0.3826875375399422
vn -1 0 0
vn 0 0.7604066815677086 -0.6494472100388032
vn 0 0.7604066815677086 -0.6494472100388032
vn 0 0.85264188834305 -0.5224957514112413
vn -1 0 0
vn 0 0.07846041627366393 -0.9969172298030381
vn 0 0.07846041627366393 -0.9969172298030381
vn 0 0.2334443376527429 -0.9723701667666858
vn -1 0 0
vn 0 0.6494466004750592 -0.7604072021827442
vn 0 0.6494466004750592 -0.7604072021827442
vn 0 0.7604066815677086 -0.6494472100388032
vn -1 0 0
vn 0 0.5224982617760594 -0.8526403499958211
vn 0 0.5224982617760594 -0.8526403499958211
vn 0 0.6494466004750592 -0.7604072021827442
vn -1 0 0
vn 0 -0.07846041627366393 -0.9969172298030381
vn 0 -0.2334443376527429 -0.9723701667666858
vn 0 -0.2334443376527429 -0.9723701667666858
vn -1 0 0
vn 0 0.07845920464292475 0.9969173251613193
vn 0 0.23344499872216995 0.9723700080584581
vn 0 0.23344499872216995 0.9723700080584581
vn -1 0 0
vn 0 0.3826839836011218 -0.9238793041816535
vn 0 0.3826839836011218 -0.9238793041816535
vn 0 0.5224982617760594 -0.8526403499958211
vn -1 0 0
vn 0 0.2334443376527429 -0.9723701667666858
vn 0 0.2334443376527429 -0.9723701667666858
vn 0 0.3826839836011218 -0.9238793041816535
vn 0 1 6.123234262925839e-17
vn 1 0 0
vn 1 0 0
vn 0 0.9969175869033632 0.07845587882864583
vn 0 0.9969175869033632 0.07845587882864583
vn 0 1 6.123234262925839e-17
vn 1 0 0
vn 1 0 0
vn 1 0 0
vn 1 0 0
vn 0 0.9969175869033632 -0.07845587882864583
vn 1 0 0
vn 0 -1 -6.123234262925839e-17
vn 0 -0.9969175869033632 -0.07845587882864583
vn 0 -0.9969175869033632 -0.07845587882864583
vn 1 0 0
vn 0 0.972370085721385 0.2334446752320273
vn 0 0.972370085721385 0.2334446752320273
vn 0 0.9969175869033632 0.07845587882864583
vn 1 0 0
vn 0 0.9238778320815016 0.3826875375399422
vn 0 0.9238778320815016 0.3826875375399422
vn 0 0.972370085721385 0.2334446752320273
vn 1 0 0
vn 0 -1 -6.123234262925839e-17
vn 0 -1 -6.123234262925839e-17
vn 0 -0.9969175869033632 0.07845587882864583
vn 1 0 0
vn 0 0.8526417495827724 0.522495977849044
vn 0 0.8526417495827724 0.522495977849044
vn 0 0.9238778320815016 0.3826875375399422
vn 1 0 0
vn 0 0.7604067361432494 0.6494471461389069
vn 0 0.7604067361432494 0.6494471461389069
vn 0 0.8526417495827724 0.522495977849044
vn 1 0 0
vn 0 -6.123234262925839e-17 1
vn 0 -6.123234262925839e-17 1
vn 0 0.07845920464292475 0.9969173251613193
vn 1 0 0
vn 0 -0.23344499872216995 0.9723700080584581
vn 0 -0.38268366163773404 0.9238794375434147
vn 0 -0.38268366163773404 0.9238794375434147
vn 1 0 0
vn 0 -0.38268366163773404 0.9238794375434147
vn 0 -0.5224986014320511 0.8526401418544346
vn 0 -0.5224986014320511 0.8526401418544346
vn 1 0 0
vn 0 -0.5224986014320511 0.8526401418544346
vn 0 -0.6494466004750592 0.7604072021827442
vn 0 -0.6494466004750592 0.7604072021827442
vn 1 0 0
vn 0 -0.6494466004750592 0.7604072021827442
vn 0 -0.7604067361432494 0.6494471461389069
vn 0 -0.7604067361432494 0.6494471461389069
vn 1 0 0
vn 0 -0.7604067361432494 0.6494471461389069
vn 0 -0.8526417495827724 0.522495977849044
vn 0 -0.8526417495827724 0.522495977849044
vn 1 0 0
vn 0 -6.123234262925839e-17 1
vn 0 -0.07845920464292475 0.9969173251613193
vn 0 -0.07845920464292475 0.9969173251613193
vn 1 0 0
vn 0 -0.8526417495827724 0.522495977849044
vn 0 -0.9238778320815016 0.3826875375399422
vn 0 -0.9238778320815016 0.3826875375399422
vn 1 0 0
vn 0 -0.9238778320815016 0.3826875375399422
vn 0 -0.972370085721385 0.2334446752320273
vn 0 -0.972370085721385 0.2334446752320273
vn 1 0 0
vn 0 -0.972370085721385 0.2334446752320273
vn 0 -0.9969175869033632 0.07845587882864583
vn 0 -0.9969175869033632 0.07845587882864583
vn 1 0 0
vn 0 -0.972370085721385 -0.2334446752320273
vn 0 -0.972370085721385 -0.2334446752320273
vn 0 -0.9969175869033632 -0.07845587882864583
vn 1 0 0
vn 0 -0.9238778320815016 -0.3826875375399422
vn 0 -0.9238778320815016 -0.3826875375399422
vn 0 -0.972370085721385 -0.2334446752320273
vn 1 0 0
vn 0 6.123234262925839e-17 -1
vn 0 6.123234262925839e-17 -1
vn 0 -0.07846041627366393 -0.9969172298030381
vn 1 0 0
vn 0 -0.85264188834305 -0.5224957514112413
vn 0 -0.85264188834305 -0.5224957514112413
vn 0 -0.9238778320815016 -0.3826875375399422
vn 1 0 0
vn 0 -0.7604066815677086 -0.6494472100388032
vn 0 -0.7604066815677086 -0.6494472100388032
vn 0 -0.85264188834305 -0.5224957514112413
vn 1 0 0
vn 0 -0.5224982617760594 -0.8526403499958211
vn 0 -0.5224982617760594 -0.8526403499958211
vn 0 -0.6494466004750592 -0.7604072021827442
vn 1 0 0
vn 0 -0.3826839836011218 -0.9238793041816535
vn 0 -0.3826839836011218 -0.9238793041816535
vn 0 -0.5224982617760594 -0.8526403499958211
vn 1 0 0
vn 0 -0.2334443376527429 -0.9723701667666858
vn 0 -0.2334443376527429 -0.9723701667666858
vn 0 -0.3826839836011218 -0.9238793041816535
vn 1 0 0
vn 0 0.38268366163773404 0.9238794375434147
vn 0 0.38268366163773404 0.9238794375434147
vn 0 0.5224986014320511 0.8526401418544346
vn 1 0 0
vn 0 0.5224986014320511 0.8526401418544346
vn 0 0.5224986014320511 0.8526401418544346
vn 0 0.6494466004750592 0.7604072021827442
vn 1 0 0
vn 0 0.6494466004750592 0.7604072021827442
vn 0 0.6494466004750592 0.7604072021827442
vn 0 0.7604067361432494 0.6494471461389069
vn 1 0 0
vn 0 -0.07845920464292475 0.9969173251613193
vn 0 -0.23344499872216995 0.9723700080584581
vn 0 -0.23344499872216995 0.9723700080584581
vn 1 0 0
vn 0 -0.6494466004750592 -0.7604072021827442
vn 0 -0.6494466004750592 -0.7604072021827442
vn 0 -0.7604066815677086 -0.6494472100388032
vn 1 0 0
vn 0 -0.07846041627366393 -0.9969172298030381
vn 0 -0.07846041627366393 -0.9969172298030381
vn 0 -0.2334443376527429 -0.9723701667666858
vn 1 0 0
vn 0 0.2334443376527429 -0.9723701667666858
vn 0 0.3826839836011218 -0.9238793041816535
vn 0 0.3826839836011218 -0.9238793041816535
vn 1 0 0
vn 0 0.3826839836011218 -0.9238793041816535
vn 0 0.5224982617760594 -0.8526403499958211
vn 0 0.5224982617760594 -0.8526403499958211
vn 1 0 0
vn 0 0.5224982617760594 -0.8526403499958211
vn 0 0.6494466004750592 -0.7604072021827442
vn 0 0.6494466004750592 -0.7604072021827442
vn 1 0 0
vn 0 0.9238778320815016 -0.3826875375399422
vn 0 0.972370085721385 -0.2334446752320273
vn 0 0.972370085721385 -0.2334446752320273
vn 1 0 0
vn 0 6.123234262925839e-17 -1
vn 0 0.07846041627366393 -0.9969172298030381
vn 0 0.07846041627366393 -0.9969172298030381
vn 1 0 0
vn 0 0.85264188834305 -0.5224957514112413
vn 0 0.9238778320815016 -0.3826875375399422
vn 0 0.9238778320815016 -0.3826875375399422
vn 1 0 0
vn 0 0.7604066815677086 -0.6494472100388032
vn 0 0.85264188834305 -0.5224957514112413
vn 0 0.85264188834305 -0.5224957514112413
vn 1 0 0
vn 0 0.972370085721385 -0.2334446752320273
vn 0 0.9969175869033632 -0.07845587882864583
vn 0 0.9969175869033632 -0.07845587882864583
vn 1 0 0
vn 0 0.23344499872216995 0.9723700080584581
vn 0 0.23344499872216995 0.9723700080584581
vn 0 0.38268366163773404 0.9238794375434147
vn 1 0 0
vn 0 0.07845920464292475 0.9969173251613193
vn 0 0.07845920464292475 0.9969173251613193
vn 0 0.23344499872216995 0.9723700080584581
vn 1 0 0
vn 0 0.07846041627366393 -0.9969172298030381
vn 0 0.2334443376527429 -0.9723701667666858
vn 0 0.2334443376527429 -0.9723701667666858
vn 1 0 0
vn 0 0.6494466004750592 -0.7604072021827442
vn 0 0.7604066815677086 -0.6494472100388032
vn 0 0.7604066815677086 -0.6494472100388032
f 1//1 2//5 3//9
f 4//13 5//17 6//21
f 3//9 7//25 1//1
f 1//1 7//25 8//29
f 1//1 8//29 9//33
f 10//37 11//41 12//45
f 13//49 14//53 15//57
f 16//61 17//65 18//69
f 19//73 20//77 21//81
f 22//85 23//89 24//93
f 24//93 23//89 25//97
f 24//93 25//97 26//101
f 5//17 27//105 6//21
f 6//21 27//105 13//49
f 6//21 13//49 28//109
f 28//109 13//49 15//57
f 29//113 30//117 31//121
f 31//121 30//117 32//125
f 31//121 32//125 33//129
f 17//65 34//133 18//69
f 18//69 34//133 9//33
f 18//69 9//33 6//21
f 6//21 9//33 8//29
f 6//21 8//29 4//13
f 26//101 35//137 24//93
f 24//93 35//137 2//5
f 24//93 2//5 21//81
f 21//81 2//5 1//1
f 21//81 1//1 19//73
f 20//77 36//141 21//81
f 21//81 36//141 37//145
f 21//81 37//145 38//149
f 37//145 39//153 40//157
f 22//85 24//93 12//45
f 12//45 24//93 41//161
f 12//45 41//161 10//37
f 16//61 18//69 31//121
f 31//121 18//69 42//165
f 31//121 42//165 29//113
f 40//157 43//169 37//145
f 37//145 43//169 44//173
f 37//145 44//173 38//149
f 45//177 46//182 9//34
f 9//35 46//182 1//2
f 47//188 46//183 45//178
f 45//179 48//192 47//188
f 47//188 48//192 49//196
f 47//188 49//196 50//200
f 51//204 52//208 53//212
f 54//216 55//220 56//224
f 57//228 58//232 59//236
f 59//236 58//232 60//240
f 59//236 60//240 61//244
f 61//244 62//248 59//236
f 59//236 62//248 50//200
f 59//236 50//200 53//212
f 53//212 50//200 49//196
f 53//212 49//196 51//204
f 63//252 64//256 65//260
f 65//260 64//256 66//264
f 65//260 66//264 67//268
f 68//272 69//276 70//280
f 71//284 52//208 72//288
f 72//288 52//208 73//292
f 57//228 59//236 56//224
f 56//224 59//236 74//296
f 56//224 74//296 54//216
f 67//268 75//300 65//260
f 65//260 75//300 68//272
f 65//260 68//272 76//304
f 76//304 68//272 70//280
f 77//308 78//312 79//316
f 80//320 81//324 82//328
f 82//328 81//324 83//332
f 80//320 84//336 81//324
f 81//324 84//336 46//184
f 81//324 46//185 65//260
f 65//260 46//186 47//188
f 65//260 47//188 63//252
f 71//284 85//340 52//208
f 52//208 85//340 86//344
f 52//208 86//344 53//212
f 81//324 87//348 83//332
f 83//332 87//348 77//308
f 83//332 77//308 88//352
f 88//352 77//308 79//316
f 3//10 2//6 50//201
f 50//202 2//7 47//189
f 24//94 21//82 65//261
f 65//262 21//83 81//325
f 18//70 6//22 53//213
f 53//214 6//23 59//237
f 24//95 65//263 76//305
f 24//96 76//306 41//162
f 41//163 76//307 70//281
f 41//164 70//282 10//38
f 10//39 70//283 69//277
f 10//40 69//278 11//42
f 11//43 69//279 68//273
f 11//44 68//274 12//46
f 12//47 68//275 75//301
f 12//48 75//302 22//86
f 22//87 75//303 67//269
f 22//88 67//270 23//90
f 23//91 67//271 66//265
f 23//92 66//266 25//98
f 25//99 66//267 64//257
f 25//100 64//258 26//102
f 26//103 64//259 63//253
f 26//104 63//254 35//138
f 35//139 63//255 47//190
f 35//140 47//191 2//8
f 81//326 21//84 38//150
f 81//327 38//151 87//349
f 87//350 38//152 44//174
f 87//351 44//175 77//309
f 77//310 44//176 43//170
f 77//311 43//171 78//313
f 78//314 43//172 40//158
f 78//315 40//159 79//317
f 79//318 40//160 39//154
f 79//319 39//155 88//353
f 88//354 39//156 37//146
f 88//355 37//147 83//333
f 83//334 37//148 36//142
f 83//335 36//143 82//329
f 82//330 36//144 20//78
f 82//331 20//79 80//321
f 80//322 20//80 19//74
f 80//323 19//75 84//337
f 84//338 19//76 1//3
f 84//339 1//4 46//187
f 18//71 53//215 86//345
f 18//72 86//346 42//166
f 42//167 86//347 85//341
f 42//168 85//342 29//114
f 29//115 85//343 71//285
f 29//116 71//286 30//118
f 30//119 71//287 72//289
f 30//120 72//290 32//126
f 32//127 72//291 73//293
f 32//128 73//294 33//130
f 33//131 73//295 52//209
f 33//132 52//210 31//122
f 31//123 52//211 51//205
f 31//124 51//206 16//62
f 16//63 51//207 49//197
f 16//64 49//198 17//66
f 17//67 49//199 48//193
f 17//68 48//194 34//134
f 34//135 48//195 45//180
f 34//136 45//181 9//36
f 59//238 6//24 28//110
f 59//239 28//111 74//297
f 74//298 28//112 15//58
f 74//299 15//59 54//217
f 54//218 15//60 14//54
f 54//219 14//55 55//221
f 55//222 14//56 13//50
f 55//223 13//51 56//225
f 56//226 13//52 27//106
f 56//227 27//107 57//229
f 57//230 27//108 5//18
f 57//231 5//19 58//233
f 58//234 5//20 4//14
f 58//235 4//15 60//241
f 60//242 4//16 8//30
f 60//243 8//31 61//245
f 61//246 8//32 7//26
f 61//247 7//27 62//249
f 62//250 7//28 3//11
f 62//251 3//12 50//203
